<?xml version="1.0" encoding="UTF-8" standalone="no"?>
<!DOCTYPE svg PUBLIC "-//W3C//DTD SVG 1.1//EN" "http://www.w3.org/Graphics/SVG/1.1/DTD/svg11.dtd">
<svg width="100%" height="100%" viewBox="0 0 498 63" version="1.1" xmlns="http://www.w3.org/2000/svg" xmlns:xlink="http://www.w3.org/1999/xlink" xml:space="preserve" xmlns:serif="http://www.serif.com/" style="fill-rule:evenodd;clip-rule:evenodd;stroke-linejoin:round;stroke-miterlimit:2;">
    <g transform="matrix(1,0,0,1,-156.778,-268.604)">
        <g transform="matrix(6.54911,0,0,6.54911,-987.329,-1301.39)">
            <path d="M182.34,249.171L182.328,244.131L179.856,248.283L178.98,248.283L176.52,244.239L176.52,249.171L174.696,249.171L174.696,240.771L176.304,240.771L179.448,245.991L182.544,240.771L184.14,240.771L184.164,249.171L182.34,249.171Z" style="fill-rule:nonzero;"/>
        </g>
        <g transform="matrix(6.54911,0,0,6.54911,-992.663,-1301.39)">
            <path d="M192.528,242.715L192.528,249.171L190.752,249.171L190.752,248.403C190.504,248.683 190.208,248.897 189.864,249.045C189.52,249.193 189.148,249.267 188.748,249.267C187.9,249.267 187.228,249.023 186.732,248.535C186.236,248.047 185.988,247.323 185.988,246.363L185.988,242.715L187.86,242.715L187.86,246.087C187.86,247.127 188.296,247.647 189.168,247.647C189.616,247.647 189.976,247.501 190.248,247.209C190.52,246.917 190.656,246.483 190.656,245.907L190.656,242.715L192.528,242.715Z" style="fill-rule:nonzero;"/>
        </g>
        <g transform="matrix(6.54911,0,0,6.54911,-994.188,-1301.39)">
            <path d="M196.44,249.267C195.904,249.267 195.38,249.201 194.868,249.069C194.356,248.937 193.948,248.771 193.644,248.571L194.268,247.227C194.556,247.411 194.904,247.561 195.312,247.677C195.72,247.793 196.12,247.851 196.512,247.851C197.304,247.851 197.7,247.655 197.7,247.263C197.7,247.079 197.592,246.947 197.376,246.867C197.16,246.787 196.828,246.719 196.38,246.663C195.852,246.583 195.416,246.491 195.072,246.387C194.728,246.283 194.43,246.099 194.178,245.835C193.926,245.571 193.8,245.195 193.8,244.707C193.8,244.299 193.918,243.937 194.154,243.621C194.39,243.305 194.734,243.059 195.186,242.883C195.638,242.707 196.172,242.619 196.788,242.619C197.244,242.619 197.698,242.669 198.15,242.769C198.602,242.869 198.976,243.007 199.272,243.183L198.648,244.515C198.08,244.195 197.46,244.035 196.788,244.035C196.388,244.035 196.088,244.091 195.888,244.203C195.688,244.315 195.588,244.459 195.588,244.635C195.588,244.835 195.696,244.975 195.912,245.055C196.128,245.135 196.472,245.211 196.944,245.283C197.472,245.371 197.904,245.465 198.24,245.565C198.576,245.665 198.868,245.847 199.116,246.111C199.364,246.375 199.488,246.743 199.488,247.215C199.488,247.615 199.368,247.971 199.128,248.283C198.888,248.595 198.538,248.837 198.078,249.009C197.618,249.181 197.072,249.267 196.44,249.267Z" style="fill-rule:nonzero;"/>
        </g>
        <g transform="matrix(6.54911,0,0,6.54911,-996.45,-1301.39)">
            <path d="M200.64,242.715L202.512,242.715L202.512,249.171L200.64,249.171L200.64,242.715ZM201.576,241.815C201.232,241.815 200.952,241.715 200.736,241.515C200.52,241.315 200.412,241.067 200.412,240.771C200.412,240.475 200.52,240.227 200.736,240.027C200.952,239.827 201.232,239.727 201.576,239.727C201.92,239.727 202.2,239.823 202.416,240.015C202.632,240.207 202.74,240.447 202.74,240.735C202.74,241.047 202.632,241.305 202.416,241.509C202.2,241.713 201.92,241.815 201.576,241.815Z" style="fill-rule:nonzero;"/>
        </g>
        <g transform="matrix(6.54911,0,0,6.54911,-998.019,-1301.39)">
            <path d="M207.372,249.267C206.684,249.267 206.066,249.125 205.518,248.841C204.97,248.557 204.542,248.163 204.234,247.659C203.926,247.155 203.772,246.583 203.772,245.943C203.772,245.303 203.926,244.731 204.234,244.227C204.542,243.723 204.97,243.329 205.518,243.045C206.066,242.761 206.684,242.619 207.372,242.619C208.052,242.619 208.646,242.761 209.154,243.045C209.662,243.329 210.032,243.735 210.264,244.263L208.812,245.043C208.476,244.451 207.992,244.155 207.36,244.155C206.872,244.155 206.468,244.315 206.148,244.635C205.828,244.955 205.668,245.391 205.668,245.943C205.668,246.495 205.828,246.931 206.148,247.251C206.468,247.571 206.872,247.731 207.36,247.731C208,247.731 208.484,247.435 208.812,246.843L210.264,247.635C210.032,248.147 209.662,248.547 209.154,248.835C208.646,249.123 208.052,249.267 207.372,249.267Z" style="fill-rule:nonzero;"/>
        </g>
        <g transform="matrix(1,0,0,1,178.005,69.8462)">
            <path d="M239.333,261.236C233.727,261.236 228.658,260.018 224.126,257.581C219.594,255.145 216.031,251.766 213.438,247.443C210.844,243.121 209.548,238.235 209.548,232.787C209.548,227.338 210.844,222.452 213.438,218.13C216.031,213.807 219.594,210.428 224.126,207.992C228.658,205.555 233.753,204.337 239.412,204.337C244.179,204.337 248.489,205.175 252.339,206.852C256.19,208.529 259.426,210.939 262.045,214.082L253.872,221.627C250.152,217.331 245.542,215.182 240.04,215.182C236.635,215.182 233.596,215.929 230.924,217.422C228.252,218.915 226.169,220.998 224.676,223.67C223.183,226.342 222.436,229.381 222.436,232.787C222.436,236.192 223.183,239.231 224.676,241.903C226.169,244.575 228.252,246.658 230.924,248.151C233.596,249.644 236.635,250.391 240.04,250.391C245.542,250.391 250.152,248.216 253.872,243.868L262.045,251.412C259.426,254.608 256.177,257.044 252.3,258.721C248.423,260.398 244.101,261.236 239.333,261.236Z" style="fill-rule:nonzero;"/>
        </g>
        <g transform="matrix(1,0,0,1,178.836,70.1606)">
            <path d="M309.67,239.309C309.67,239.467 309.592,240.567 309.435,242.61L277.449,242.61C278.025,245.23 279.387,247.299 281.535,248.819C283.684,250.338 286.356,251.098 289.552,251.098C291.752,251.098 293.704,250.77 295.406,250.115C297.109,249.461 298.694,248.426 300.161,247.011L306.684,254.084C302.702,258.642 296.887,260.921 289.237,260.921C284.469,260.921 280.252,259.992 276.584,258.132C272.917,256.272 270.088,253.691 268.097,250.391C266.106,247.09 265.11,243.344 265.11,239.152C265.11,235.013 266.093,231.28 268.057,227.953C270.022,224.626 272.72,222.033 276.152,220.173C279.584,218.313 283.422,217.383 287.665,217.383C291.804,217.383 295.551,218.274 298.904,220.055C302.257,221.836 304.89,224.391 306.802,227.717C308.714,231.044 309.67,234.908 309.67,239.309ZM287.744,226.657C284.967,226.657 282.636,227.442 280.75,229.014C278.863,230.586 277.711,232.734 277.292,235.459L298.118,235.459C297.699,232.787 296.546,230.651 294.66,229.054C292.774,227.456 290.468,226.657 287.744,226.657Z" style="fill-rule:nonzero;"/>
        </g>
        <g transform="matrix(1,0,0,1,177.299,70.1606)">
            <path d="M343.542,217.383C348.782,217.383 353.012,218.955 356.235,222.098C359.457,225.242 361.068,229.905 361.068,236.087L361.068,260.293L348.808,260.293L348.808,237.973C348.808,234.62 348.074,232.118 346.607,230.468C345.14,228.818 343.018,227.993 340.242,227.993C337.15,227.993 334.688,228.949 332.854,230.861C331.021,232.773 330.104,235.616 330.104,239.388L330.104,260.293L317.844,260.293L317.844,218.012L329.554,218.012L329.554,222.963C331.178,221.181 333.195,219.806 335.605,218.837C338.015,217.868 340.661,217.383 343.542,217.383Z" style="fill-rule:nonzero;"/>
        </g>
        <g transform="matrix(1,0,0,1,176.511,70.1606)">
            <path d="M399.419,258.249C398.214,259.14 396.734,259.808 394.979,260.253C393.224,260.699 391.377,260.921 389.439,260.921C384.409,260.921 380.519,259.638 377.768,257.071C375.017,254.503 373.642,250.731 373.642,245.754L373.642,228.386L367.119,228.386L367.119,218.955L373.642,218.955L373.642,208.66L385.902,208.66L385.902,218.955L396.433,218.955L396.433,228.386L385.902,228.386L385.902,245.597C385.902,247.378 386.361,248.753 387.277,249.723C388.194,250.692 389.491,251.176 391.168,251.176C393.106,251.176 394.756,250.652 396.119,249.605L399.419,258.249Z" style="fill-rule:nonzero;"/>
        </g>
        <g transform="matrix(1,0,0,1,175.96,70.1606)">
            <path d="M446.416,239.309C446.416,239.467 446.337,240.567 446.18,242.61L414.194,242.61C414.771,245.23 416.133,247.299 418.281,248.819C420.429,250.338 423.101,251.098 426.297,251.098C428.498,251.098 430.449,250.77 432.152,250.115C433.855,249.461 435.44,248.426 436.907,247.011L443.429,254.084C439.448,258.642 433.632,260.921 425.983,260.921C421.215,260.921 416.997,259.992 413.33,258.132C409.662,256.272 406.833,253.691 404.842,250.391C402.851,247.09 401.856,243.344 401.856,239.152C401.856,235.013 402.838,231.28 404.803,227.953C406.768,224.626 409.466,222.033 412.898,220.173C416.329,218.313 420.167,217.383 424.411,217.383C428.55,217.383 432.296,218.274 435.649,220.055C439.002,221.836 441.635,224.391 443.547,227.717C445.46,231.044 446.416,234.908 446.416,239.309ZM424.489,226.657C421.713,226.657 419.381,227.442 417.495,229.014C415.609,230.586 414.456,232.734 414.037,235.459L434.863,235.459C434.444,232.787 433.291,230.651 431.405,229.054C429.519,227.456 427.214,226.657 424.489,226.657Z" style="fill-rule:nonzero;"/>
        </g>
        <g transform="matrix(1,0,0,1,173.605,70.1606)">
            <path d="M466.299,223.592C467.766,221.548 469.744,220.003 472.232,218.955C474.721,217.907 477.59,217.383 480.838,217.383L480.838,228.7C479.476,228.595 478.559,228.543 478.087,228.543C474.577,228.543 471.826,229.525 469.836,231.49C467.845,233.455 466.849,236.402 466.849,240.331L466.849,260.293L454.589,260.293L454.589,218.012L466.299,218.012L466.299,223.592Z" style="fill-rule:nonzero;"/>
        </g>
    </g>
</svg>
